<svg width="399" height="98" viewBox="0 0 399 98" fill="none" xmlns="http://www.w3.org/2000/svg">
<path d="M3.96191 49.9764L47.4148 60.872L90.8677 37.4363L134.321 30.4467L177.774 55.4242L221.226 23.7654L264.679 8.14157L308.132 29.0076L351.585 3.92725L395.038 94.0727" stroke="#38C976"/>
<path d="M3.96192 52.9037C5.58087 52.9037 6.92384 51.6099 6.92384 49.9765C6.92384 48.3431 5.58087 47.0492 3.96192 47.0492C2.34297 47.0492 1 48.3431 1 49.9765C1 51.6099 2.34297 52.9037 3.96192 52.9037Z" fill="#38C976" stroke="white" stroke-width="2"/>
<path d="M47.4153 63.7994C49.0342 63.7994 50.3772 62.5055 50.3772 60.8721C50.3772 59.2387 49.0342 57.9448 47.4153 57.9448C45.7963 57.9448 44.4534 59.2387 44.4534 60.8721C44.4534 62.5055 45.7963 63.7994 47.4153 63.7994Z" fill="#38C976" stroke="white" stroke-width="2"/>
<path d="M90.8677 40.3636C92.4866 40.3636 93.8296 39.0697 93.8296 37.4363C93.8296 35.8029 92.4866 34.509 90.8677 34.509C89.2487 34.509 87.9058 35.8029 87.9058 37.4363C87.9058 39.0697 89.2487 40.3636 90.8677 40.3636Z" fill="#38C976" stroke="white" stroke-width="2"/>
<path d="M134.321 33.374C135.94 33.374 137.283 32.0801 137.283 30.4467C137.283 28.8133 135.94 27.5194 134.321 27.5194C132.702 27.5194 131.359 28.8133 131.359 30.4467C131.359 32.0801 132.702 33.374 134.321 33.374Z" fill="#38C976" stroke="white" stroke-width="2"/>
<path d="M177.773 58.3515C179.392 58.3515 180.735 57.0576 180.735 55.4242C180.735 53.7908 179.392 52.4969 177.773 52.4969C176.154 52.4969 174.811 53.7908 174.811 55.4242C174.811 57.0576 176.154 58.3515 177.773 58.3515Z" fill="#38C976" stroke="white" stroke-width="2"/>
<path d="M221.227 26.6927C222.846 26.6927 224.189 25.3988 224.189 23.7654C224.189 22.132 222.846 20.8381 221.227 20.8381C219.608 20.8381 218.265 22.132 218.265 23.7654C218.265 25.3988 219.608 26.6927 221.227 26.6927Z" fill="#38C976" stroke="white" stroke-width="2"/>
<path d="M264.494 10.8487C266.113 10.8487 267.456 9.55483 267.456 7.92142C267.456 6.288 266.113 4.99414 264.494 4.99414C262.875 4.99414 261.532 6.288 261.532 7.92142C261.532 9.55483 262.875 10.8487 264.494 10.8487Z" fill="#38C976" stroke="white" stroke-width="2"/>
<path d="M308.132 31.935C309.751 31.935 311.094 30.6412 311.094 29.0077C311.094 27.3743 309.751 26.0804 308.132 26.0804C306.513 26.0804 305.17 27.3743 305.17 29.0077C305.17 30.6412 306.513 31.935 308.132 31.935Z" fill="#38C976" stroke="white" stroke-width="2"/>
<path d="M351.585 6.85457C353.203 6.85457 354.546 5.56071 354.546 3.92728C354.546 2.29386 353.203 1 351.585 1C349.966 1 348.623 2.29386 348.623 3.92728C348.623 5.56071 349.966 6.85457 351.585 6.85457Z" fill="#38C976" stroke="white" stroke-width="2"/>
<path d="M395.038 97.0001C396.657 97.0001 398 95.7062 398 94.0728C398 92.4394 396.657 91.1455 395.038 91.1455C393.419 91.1455 392.076 92.4394 392.076 94.0728C392.076 95.7062 393.419 97.0001 395.038 97.0001Z" fill="#38C976" stroke="white" stroke-width="2"/>
</svg>
